<?xml version="1.0" encoding="utf-8"?>
<!-- Generator: Adobe Illustrator 17.0.0, SVG Export Plug-In . SVG Version: 6.00 Build 0)  -->
<!DOCTYPE svg PUBLIC "-//W3C//DTD SVG 1.1//EN" "http://www.w3.org/Graphics/SVG/1.1/DTD/svg11.dtd">
<svg version="1.1" id="Layer_1" xmlns="http://www.w3.org/2000/svg" xmlns:xlink="http://www.w3.org/1999/xlink" x="0px" y="0px"
	 width="198.795px" height="201.205px" viewBox="0 0 198.795 201.205" enable-background="new 0 0 198.795 201.205"
	 xml:space="preserve">
<g>
	
		<rect x="122.691" y="85.727" fill="none" stroke="#FFFFFF" stroke-width="3" stroke-miterlimit="10" width="36.324" height="0.331"/>
	
		<rect x="122.685" y="121.727" fill="none" stroke="#FFFFFF" stroke-width="3" stroke-miterlimit="10" width="36.33" height="0.33"/>
	
		<rect x="122.688" y="103.727" fill="none" stroke="#FFFFFF" stroke-width="3" stroke-miterlimit="10" width="24.28" height="0.33"/>
	<path fill="none" stroke="#FFFFFF" stroke-width="3" stroke-miterlimit="10" d="M26.684,176.057V49.727H89.85
		c1.565,0,2.834-1.269,2.834-2.834V31.727h18.331v15.166c0,1.565,1.27,2.834,2.835,2.834h63.165v126.33H26.684z M29.85,68.058
		c-1.565,0-2.834,1.269-2.834,2.834v102c0,1.565,1.269,2.835,2.834,2.835h144c1.565,0,2.835-1.27,2.835-2.835v-102
		c0-1.565-1.27-2.834-2.835-2.834H29.85z M113.85,50.058c-1.565,0-2.835,1.269-2.835,2.834v12c0,1.565,1.27,2.834,2.835,2.834h60
		c1.565,0,2.835-1.269,2.835-2.834v-12c0-1.565-1.27-2.834-2.835-2.834H113.85z M95.85,32.058c-1.565,0-2.834,1.269-2.834,2.834v30
		c0,1.565,1.269,2.834,2.834,2.834h12c1.565,0,2.835-1.269,2.835-2.834v-30c0-1.565-1.27-2.834-2.835-2.834H95.85z M29.85,50.058
		c-1.565,0-2.834,1.269-2.834,2.834v12c0,1.565,1.269,2.834,2.834,2.834h60c1.565,0,2.834-1.269,2.834-2.834v-12
		c0-1.565-1.269-2.834-2.834-2.834H29.85z"/>
	<path fill="none" stroke="#FFFFFF" stroke-width="3" stroke-miterlimit="10" d="M113.654,152.057
		c-0.047-0.32-0.148-0.633-0.302-0.921c-0.261-0.49-0.908-1.402-2.313-2.004c-4.294-1.792-14.453-5.302-20.534-7.098
		c-2.421-0.766-2.89-2.52-2.89-5.481c0-2.501,0.967-4.868,1.809-6.652c0.675-1.445,1.532-4.015,1.829-6.266l0.124-0.937l0.617-0.715
		c0.575-0.665,1.658-2.344,2.409-6.067c0.516-2.591,0.418-3.587,0.057-4.521c-0.102-0.261-0.172-0.455-0.233-0.653l-0.031-0.106
		l-0.034-0.151c-0.34-1.588,0.098-6.813,0.69-10.063c0.318-1.774-0.16-5.829-2.792-9.191c-2.414-3.086-6.063-4.824-10.846-5.165
		c-0.067-0.004-0.203-0.007-0.204-0.007l-3.598,0.003c-0.067,0-0.134,0.002-0.2,0.007c-4.711,0.338-8.323,2.074-10.735,5.161
		c-2.636,3.372-3.111,7.429-2.791,9.193c0.593,3.254,1.03,8.474,0.683,10.08c-0.079,0.339-0.162,0.575-0.269,0.834
		c-0.382,1.011-0.474,2.003,0.04,4.579c0.748,3.733,1.834,5.407,2.415,6.072l0.612,0.709l0.125,0.949
		c0.289,2.238,1.149,4.811,1.827,6.25c0.8,1.703,1.173,3.845,1.173,6.737c0,2.96-0.446,4.706-2.799,5.454
		c-6.435,1.901-16.695,5.6-20.544,7.281c-0.159,0.064-0.313,0.144-0.429,0.206c-0.831,0.446-1.385,1.276-1.479,2.215
		c-0.008,0.076-0.016,0.165-0.021,0.268h-0.332c0.06-1.497,0.684-2.372,2.11-2.984c3.789-1.656,14.207-5.413,20.539-7.284
		c2.623-0.834,2.623-3.03,2.623-5.155c0-2.837-0.361-4.93-1.137-6.588c-0.691-1.461-1.565-4.068-1.863-6.364
		c-0.071-0.551-0.303-1.067-0.666-1.488c-0.601-0.694-1.72-2.425-2.477-6.209c-0.635-3.178-0.319-4.001-0.04-4.727
		c0.107-0.263,0.196-0.506,0.259-0.774c0.35-1.632-0.09-6.787-0.679-10.006c-0.278-1.531,0.054-5.863,2.86-9.448
		c1.717-2.198,5.031-4.894,11.085-5.298l3.813-0.003c6.155,0.407,9.489,3.103,11.204,5.299c2.806,3.584,3.137,7.917,2.858,9.454
		c-0.586,3.227-1.024,8.388-0.689,9.957c0.018,0.083,0.039,0.164,0.063,0.244c0.055,0.178,0.12,0.351,0.189,0.526
		c0.304,0.776,0.619,1.586-0.015,4.78c-0.764,3.781-1.883,5.514-2.482,6.209c-0.36,0.418-0.59,0.932-0.662,1.479
		c-0.303,2.294-1.178,4.909-1.863,6.368c-0.877,1.865-1.774,4.1-1.774,6.51c0,2.126,0,4.324,2.599,5.148
		c6.127,1.809,16.333,5.338,20.658,7.141c1.784,0.768,2.678,2.153,2.798,3.214H113.654z"/>
</g>
</svg>
