<?xml version="1.0" encoding="utf-8"?>
<!-- Generator: Adobe Illustrator 17.0.0, SVG Export Plug-In . SVG Version: 6.00 Build 0)  -->
<!DOCTYPE svg PUBLIC "-//W3C//DTD SVG 1.1//EN" "http://www.w3.org/Graphics/SVG/1.1/DTD/svg11.dtd">
<svg version="1.1" id="Layer_1" xmlns="http://www.w3.org/2000/svg" xmlns:xlink="http://www.w3.org/1999/xlink" x="0px" y="0px"
	 width="198.795px" height="201.205px" viewBox="0 0 198.795 201.205" enable-background="new 0 0 198.795 201.205"
	 xml:space="preserve">
<path fill="#FFFFFF" d="M72.92,160.119c-3.977,0-4.091-3.616-4.091-4.028v-5.917c0-0.783-0.635-1.417-1.417-1.417H26.412
	c-2.886,0-3.032-2.489-3.032-2.988v-11.48c0-1.921,1.37-4.448,4.432-5.762c5.023-2.101,16.974-6.236,24.114-8.345
	c1.743-0.557,1.743-1.774,1.743-4.202s-0.956-4.786-1.891-6.773c-0.881-1.885-1.942-5.077-2.325-7.954
	c-0.036-0.272-0.15-0.529-0.33-0.737c-0.998-1.161-2.38-3.506-3.296-8.082c-0.784-3.931-0.46-5.234,0.044-6.53l0.06-0.158
	c0.053-0.14,0.104-0.279,0.144-0.416c0.01-0.034,0.019-0.068,0.026-0.102c0.299-1.396-0.124-7.075-0.807-10.852
	c-0.445-2.437,0.163-7.978,3.686-12.483c2.245-2.867,6.581-6.389,14.48-6.881l4.55,0.003c7.701,0.491,12.009,4.012,14.251,6.878
	c3.519,4.501,4.128,10.045,3.686,12.482c-0.685,3.76-1.108,9.428-0.81,10.83c0.071,0.28,0.146,0.482,0.227,0.686
	c0.421,1.09,0.894,2.316,0.047,6.543c-0.916,4.584-2.297,6.924-3.295,8.08c-0.181,0.209-0.296,0.466-0.333,0.741
	c-0.382,2.889-1.444,6.076-2.327,7.953c-0.781,1.667-1.145,3.849-1.145,6.868c0,2.429,0,3.648,1.675,4.18
	c5.376,1.589,12.391,4.052,17.173,5.828c0.159,0.06,0.326,0.089,0.494,0.089c0.146,0,0.292-0.022,0.434-0.067
	c2.414-0.776,4.568-1.444,6.405-1.986c1.915-0.602,1.915-1.853,1.915-4.874c0-2.943-1.164-5.814-2.304-8.234
	c-1.103-2.352-2.43-6.338-2.906-9.938c-0.036-0.273-0.151-0.53-0.332-0.739c-1.261-1.463-3.005-4.411-4.156-10.146
	c-0.985-4.943-0.551-6.669,0.071-8.268l0.052-0.136c0.071-0.184,0.139-0.366,0.192-0.548c0.01-0.034,0.019-0.067,0.026-0.102
	c0.332-1.556-0.094-8.278-1.002-13.287c-0.582-3.195,0.171-10.013,4.625-15.706c2.817-3.603,8.256-8.027,18.168-8.646l5.653,0.008
	c9.684,0.613,15.092,5.036,17.909,8.638c4.454,5.694,5.206,12.51,4.625,15.703c-0.91,4.998-1.339,11.71-1.006,13.266
	c0.086,0.338,0.183,0.585,0.284,0.833c0.495,1.286,1.124,2.917,0.056,8.246c-1.147,5.743-2.892,8.686-4.153,10.145
	c-0.182,0.209-0.298,0.468-0.334,0.743c-0.472,3.604-1.8,7.587-2.906,9.935c-0.944,2.014-1.383,4.666-1.383,8.352
	c0,3.02,0,4.27,1.837,4.852c9.389,2.772,24.248,8.136,29.847,10.588c3.139,1.35,4.66,3.667,4.66,7.088v14.203
	c0,0.412-0.115,4.028-4.092,4.028H72.92z M104.02,100.698c0.436,3.28,1.685,7.015,2.66,9.098c1.274,2.706,2.576,5.943,2.576,9.448
	c0,3.725-0.286,6.45-3.979,7.61c-8.894,2.625-23.58,7.687-29.625,10.211c-2.737,1.174-3.979,3.321-3.979,4.822l0.03,13.971
	c0.002,0.781,0.636,1.414,1.417,1.414h96.549c0.783,0,1.417-0.634,1.417-1.417v-13.968c0-2.31-0.83-3.566-2.962-4.483
	c-5.418-2.371-20.438-7.785-29.586-10.486c-3.522-1.117-3.797-3.838-3.797-7.558c0-4.12,0.526-7.16,1.655-9.567
	c0.977-2.068,2.227-5.797,2.66-9.088l0.164-1.27l0.837-0.968c0.85-0.983,2.436-3.439,3.515-8.842
	c0.837-4.174,0.539-5.464,0.098-6.612c-0.185-0.458-0.298-0.789-0.386-1.13l-0.052-0.208c-0.479-2.255,0.151-9.701,0.997-14.344
	c0.472-2.582-0.215-8.515-4.067-13.439c-2.437-3.114-7.148-6.95-15.758-7.541l-5.47-0.008c-0.032,0-0.064,0.001-0.096,0.003
	c-7.021,0.476-12.378,3.016-15.922,7.548c-3.849,4.917-4.538,10.856-4.067,13.445c0.861,4.752,1.479,12.074,0.985,14.389
	l-0.034,0.158l-0.045,0.152c-0.074,0.25-0.167,0.505-0.266,0.757l-0.06,0.159c-0.47,1.209-0.766,2.473,0.069,6.669
	c1.083,5.396,2.669,7.861,3.519,8.85l0.833,0.965L104.02,100.698z M52.276,100.879c0.329,2.46,1.293,5.44,2.076,7.113
	c1.071,2.271,2.164,4.991,2.164,7.988c0,3.134-0.287,5.818-3.812,6.94c-7.053,2.082-18.834,6.157-23.757,8.218
	c-2.057,0.88-2.676,2.388-2.717,3.062l-0.003,10.291c0,0.783,0.635,1.417,1.417,1.417h39.768c0.783,0,1.417-0.634,1.417-1.417
	v-2.605c0-2.483,1.758-5.745,5.688-7.432c3.06-1.279,8.622-3.322,14.865-5.46c0.572-0.195,0.957-0.732,0.958-1.338
	c0.001-0.604-0.381-1.143-0.952-1.342c-2.743-0.954-6.754-2.311-10.282-3.354c-3.364-1.064-3.639-3.75-3.639-6.888
	c0-3.451,0.449-6.019,1.415-8.081c0.785-1.664,1.754-4.645,2.082-7.113l0.167-1.263l0.831-0.963c0.507-0.583,1.79-2.419,2.66-6.778
	c0.633-3.168,0.418-4.112,0.095-4.941c-0.113-0.292-0.231-0.612-0.321-0.959l-0.042-0.178c-0.447-2.093,0.182-8.566,0.794-11.927
	c0.299-1.646-0.071-6.311-3.126-10.223c-1.863-2.38-5.474-5.314-12.099-5.782l-4.364-0.004c-0.033,0-0.065,0.001-0.098,0.003
	c-5.408,0.373-9.525,2.318-12.236,5.781c-3.06,3.914-3.43,8.579-3.131,10.226c0.625,3.456,1.245,9.832,0.791,11.955l-0.033,0.15
	l-0.047,0.154c-0.062,0.209-0.13,0.408-0.227,0.657c-0.009,0.022-0.042,0.121-0.05,0.144c-0.339,0.872-0.542,1.78,0.089,4.945
	c0.87,4.335,2.151,6.187,2.662,6.782l0.83,0.963L52.276,100.879z"/>
</svg>
