<?xml version="1.0" encoding="utf-8"?>
<!-- Generator: Adobe Illustrator 17.0.0, SVG Export Plug-In . SVG Version: 6.00 Build 0)  -->
<!DOCTYPE svg PUBLIC "-//W3C//DTD SVG 1.1//EN" "http://www.w3.org/Graphics/SVG/1.1/DTD/svg11.dtd">
<svg version="1.1" id="Layer_1" xmlns="http://www.w3.org/2000/svg" xmlns:xlink="http://www.w3.org/1999/xlink" x="0px" y="0px"
	 width="198.795px" height="201.205px" viewBox="0 0 198.795 201.205" enable-background="new 0 0 198.795 201.205"
	 xml:space="preserve">
<path fill="#FFFFFF" d="M175.63,48.865L153.502,26.74l-5.414,5.417l-7.577-7.571c-1.084-1.084-2.84-1.084-3.924,0L91.627,69.549
	c-1.084,1.084-1.084,2.84,0,3.924c0.542,0.542,1.252,0.813,1.962,0.813c0.71,0,1.42-0.271,1.962-0.813l42.999-43.002l5.615,5.609
	l-95.346,95.344l6.428,6.43c-2.704-1.339-5.653-2.021-8.601-2.021c-4.981,0-9.961,1.9-13.76,5.701
	c-0.39,0.385-0.764,0.802-1.122,1.238c-0.179,0.209-0.347,0.425-0.509,0.642c-0.195,0.244-0.379,0.501-0.558,0.759
	c-0.136,0.19-0.271,0.374-0.396,0.564c-8.07,12.132-8.433,35.336-8.433,35.336s0.845,0.043,2.309,0.043
	c6.666,0,26.074-0.913,36.23-11.067c6.048-6.051,7.268-15.093,3.674-22.364l6.867,6.864L175.63,48.865z M56.481,165.126
	c-6.195,6.192-17.061,8.33-24.811,9.061l12.633-12.633l-3.924-3.924l-12.102,12.102c0.986-7.403,2.948-16.373,6.661-21.947
	l0.157-0.222l0.135-0.193c0.119-0.173,0.244-0.352,0.461-0.626c0.092-0.122,0.184-0.244,0.347-0.439
	c0.244-0.292,0.493-0.574,0.77-0.848c2.628-2.629,6.119-4.076,9.836-4.076c3.712,0,7.208,1.447,9.836,4.076
	C61.901,150.88,61.901,159.704,56.481,165.126z M167.783,48.865l-32.913,32.913L120.589,67.5l32.913-32.913L167.783,48.865z
	 M116.665,71.424l14.281,14.278l-60,60l-14.281-14.278L116.665,71.424z"/>
</svg>
