<?xml version="1.0" encoding="utf-8"?>
<!-- Generator: Adobe Illustrator 17.0.0, SVG Export Plug-In . SVG Version: 6.00 Build 0)  -->
<!DOCTYPE svg PUBLIC "-//W3C//DTD SVG 1.1//EN" "http://www.w3.org/Graphics/SVG/1.1/DTD/svg11.dtd">
<svg version="1.1" id="Layer_1" xmlns="http://www.w3.org/2000/svg" xmlns:xlink="http://www.w3.org/1999/xlink" x="0px" y="0px"
	 width="26px" height="26px" viewBox="0 0 26 26" enable-background="new 0 0 26 26" xml:space="preserve">
<g>
	<path fill="none" stroke="#000000" stroke-width="0.75" stroke-miterlimit="10" d="M18.654,8.154c-0.445,0-0.808-0.363-0.808-0.808
		V5.731c0-0.445,0.363-0.808,0.808-0.808h1.615c0.445,0,0.808,0.363,0.808,0.808v1.615c0,0.445-0.363,0.808-0.808,0.808H18.654z"/>
	<g>
		<path fill="none" stroke="#000000" stroke-width="0.75" stroke-miterlimit="10" d="M13,9.154c2.676,0,4.846,2.169,4.846,4.846
			S15.675,18.846,13,18.846c-2.676,0-4.846-2.169-4.846-4.846S10.324,9.154,13,9.154 M13,7.539c-3.563,0-6.462,2.899-6.462,6.462
			S9.437,20.462,13,20.462s6.462-2.899,6.462-6.462S16.563,7.539,13,7.539L13,7.539z"/>
	</g>
	<path fill="none" stroke="#000000" stroke-width="0.75" stroke-miterlimit="10" d="M19.562,2.5H6.437
		C4.262,2.5,2.5,4.262,2.5,6.438v13.125c0,2.175,1.762,3.938,3.938,3.938h13.125c2.175,0,3.938-1.762,3.938-3.938V6.438
		C23.5,4.262,21.738,2.5,19.562,2.5z"/>
</g>
</svg>
