<?xml version="1.0" encoding="utf-8"?>
<!-- Generator: Adobe Illustrator 17.0.0, SVG Export Plug-In . SVG Version: 6.00 Build 0)  -->
<!DOCTYPE svg PUBLIC "-//W3C//DTD SVG 1.1//EN" "http://www.w3.org/Graphics/SVG/1.1/DTD/svg11.dtd">
<svg version="1.1" id="Layer_1" xmlns="http://www.w3.org/2000/svg" xmlns:xlink="http://www.w3.org/1999/xlink" x="0px" y="0px"
	 width="198.795px" height="201.205px" viewBox="0 0 198.795 201.205" enable-background="new 0 0 198.795 201.205"
	 xml:space="preserve">
<path fill="#FFFFFF" stroke="#FFFFFF" stroke-width="4" stroke-miterlimit="10" d="M79.499,177.292v-36.136
	c0-10.115-5.727-18.225-10.632-22.096c-0.026-0.021-0.126-0.099-0.154-0.117c-0.149-0.12-0.332-0.26-0.522-0.396
	c-0.047-0.049-0.099-0.094-0.154-0.136c-13.122-9.954-20.647-25.069-20.647-41.47c0-28.728,23.371-52.099,52.098-52.099
	s52.099,23.371,52.099,52.099c0,16.506-7.602,31.68-20.854,41.63c-0.049,0.036-0.094,0.075-0.137,0.117
	c-4.229,2.958-11.12,10.85-11.12,22.468v36.136L79.499,177.292L79.499,177.292z M83.433,155.793c-0.783,0-1.417,0.634-1.417,1.417
	v16.146c0,0.783,0.635,1.417,1.417,1.417h32.11c0.783,0,1.417-0.634,1.417-1.417V157.21c0-0.783-0.634-1.417-1.417-1.417H83.433z
	 M99.487,67.651c5.121,0,9.287,4.167,9.287,9.289c0,4.207-2.864,7.887-6.966,8.95c-0.625,0.162-1.062,0.726-1.062,1.372v64.596
	c0,0.783,0.634,1.417,1.417,1.417h13.379c0.783,0,1.417-0.634,1.417-1.417v-10.703c0-11.702,6.478-20.463,12.023-24.409
	c0.031-0.022,0.208-0.164,0.208-0.164c12.645-9.494,19.879-23.935,19.88-39.642c0-27.34-22.242-49.583-49.583-49.583
	c-27.34,0-49.583,22.243-49.583,49.583c0,15.605,7.163,29.991,19.652,39.466c0.091,0.066,0.154,0.12,0.218,0.175
	c0.233,0.178,0.644,0.495,0.646,0.497c5.377,4.244,11.594,13.06,11.594,24.077v10.703c0,0.783,0.635,1.417,1.417,1.417h13.378
	c0.783,0,1.417-0.634,1.417-1.417V87.262c0-0.646-0.437-1.21-1.062-1.372c-4.101-1.064-6.965-4.745-6.965-8.95
	C90.202,71.818,94.367,67.651,99.487,67.651z M99.488,70.168c-3.732,0-6.77,3.038-6.77,6.771c0,3.731,3.037,6.767,6.77,6.767
	c3.731,0,6.768-3.035,6.769-6.766C106.257,73.206,103.221,70.168,99.488,70.168z"/>
</svg>
