<?xml version="1.0" encoding="utf-8"?>
<!-- Generator: Adobe Illustrator 17.0.0, SVG Export Plug-In . SVG Version: 6.00 Build 0)  -->
<!DOCTYPE svg PUBLIC "-//W3C//DTD SVG 1.1//EN" "http://www.w3.org/Graphics/SVG/1.1/DTD/svg11.dtd">
<svg version="1.1" id="Layer_1" xmlns="http://www.w3.org/2000/svg" xmlns:xlink="http://www.w3.org/1999/xlink" x="0px" y="0px"
	 width="198.795px" height="201.205px" viewBox="0 0 198.795 201.205" enable-background="new 0 0 198.795 201.205"
	 xml:space="preserve">
<path fill="#FFFFFF" d="M99.139,27.846c-35.841,0-64.892,13.895-64.892,31.038v84.641c0,17.138,29.051,31.032,64.892,31.032
	c35.835,0,64.892-13.895,64.892-31.032V58.884C164.03,41.741,134.973,27.846,99.139,27.846z M99.139,33.489
	c34.915,0,59.249,13.382,59.249,25.395c0,12.008-24.334,25.39-59.249,25.39c-34.92,0-59.249-13.382-59.249-25.39
	C39.89,46.871,64.218,33.489,99.139,33.489z M158.388,137.883v5.643c0,12.008-24.334,25.39-59.249,25.39
	c-34.92,0-59.249-13.382-59.249-25.39v-5.643v-9.919c10.128,10.828,32.837,18.38,59.249,18.38c26.406,0,49.121-7.552,59.249-18.38
	V137.883z M158.388,115.312c0,12.008-24.334,25.39-59.249,25.39c-34.92,0-59.249-13.382-59.249-25.39v-9.467V99.75
	c10.128,10.828,32.837,18.38,59.249,18.38c26.406,0,49.121-7.552,59.249-18.38V115.312z M158.388,87.098
	c0,12.008-24.334,25.39-59.249,25.39c-34.92,0-59.249-13.382-59.249-25.39V71.536c10.128,10.828,32.837,18.38,59.249,18.38
	c26.406,0,49.121-7.552,59.249-18.38V87.098z"/>
</svg>
