<?xml version="1.0" encoding="utf-8"?>
<!-- Generator: Adobe Illustrator 17.0.0, SVG Export Plug-In . SVG Version: 6.00 Build 0)  -->
<!DOCTYPE svg PUBLIC "-//W3C//DTD SVG 1.1//EN" "http://www.w3.org/Graphics/SVG/1.1/DTD/svg11.dtd">
<svg version="1.1" id="Layer_1" xmlns="http://www.w3.org/2000/svg" xmlns:xlink="http://www.w3.org/1999/xlink" x="0px" y="0px"
	 width="198.795px" height="201.205px" viewBox="0 0 198.795 201.205" enable-background="new 0 0 198.795 201.205"
	 xml:space="preserve">
<path fill="#EB0733" d="M99.11,60.255c15.637,0,28.359,12.723,28.359,28.362c0,4.973-1.317,9.875-3.811,14.182l-24.549,42.539
	l-24.552-42.542c-2.491-4.304-3.808-9.206-3.808-14.179C70.748,72.978,83.471,60.255,99.11,60.255 M99.11,99.645
	c6.081,0,11.028-4.947,11.028-11.028c0-6.079-4.947-11.026-11.028-11.026c-6.082,0-11.031,4.947-11.031,11.026
	C88.079,94.698,93.028,99.645,99.11,99.645 M99.11,57.104c-17.404,0-31.513,14.113-31.513,31.513c0,5.747,1.546,11.118,4.233,15.757
	l27.279,47.268l27.279-47.268c2.687-4.639,4.233-10.01,4.233-15.757C130.62,71.216,116.511,57.104,99.11,57.104L99.11,57.104z
	 M99.11,96.493c-4.351,0-7.88-3.525-7.88-7.877c0-4.347,3.528-7.875,7.88-7.875c4.35,0,7.876,3.528,7.876,7.875
	C106.986,92.968,103.46,96.493,99.11,96.493L99.11,96.493z"/>
</svg>
