<?xml version="1.0" encoding="utf-8"?>
<!-- Generator: Adobe Illustrator 17.0.0, SVG Export Plug-In . SVG Version: 6.00 Build 0)  -->
<!DOCTYPE svg PUBLIC "-//W3C//DTD SVG 1.1//EN" "http://www.w3.org/Graphics/SVG/1.1/DTD/svg11.dtd">
<svg version="1.1" id="Layer_1" xmlns="http://www.w3.org/2000/svg" xmlns:xlink="http://www.w3.org/1999/xlink" x="0px" y="0px"
	 width="198.795px" height="201.205px" viewBox="0 0 198.795 201.205" enable-background="new 0 0 198.795 201.205"
	 xml:space="preserve">
<path d="M99.108,47.938c19.034,0,34.519,15.487,34.519,34.523c0,6.053-1.603,12.02-4.639,17.263l-29.882,51.78L69.22,99.72
	c-3.032-5.239-4.635-11.206-4.635-17.259C64.585,63.425,80.072,47.938,99.108,47.938 M99.108,95.884
	c7.402,0,13.423-6.021,13.423-13.423c0-7.4-6.021-13.421-13.423-13.421c-7.404,0-13.427,6.021-13.427,13.421
	C85.681,89.863,91.705,95.884,99.108,95.884 M99.108,44.103c-21.184,0-38.359,17.178-38.359,38.359
	c0,6.995,1.882,13.534,5.152,19.18l33.205,57.535l33.205-57.535c3.27-5.647,5.152-12.185,5.152-19.18
	C137.463,61.281,120.289,44.103,99.108,44.103L99.108,44.103z M99.108,92.049c-5.297,0-9.591-4.291-9.591-9.587
	c0-5.291,4.295-9.585,9.591-9.585c5.295,0,9.587,4.295,9.587,9.585C108.695,87.758,104.403,92.049,99.108,92.049L99.108,92.049z"/>
</svg>
