<?xml version="1.0" encoding="utf-8"?>
<!-- Generator: Adobe Illustrator 17.0.0, SVG Export Plug-In . SVG Version: 6.00 Build 0)  -->
<!DOCTYPE svg PUBLIC "-//W3C//DTD SVG 1.1//EN" "http://www.w3.org/Graphics/SVG/1.1/DTD/svg11.dtd">
<svg version="1.1" id="Layer_1" xmlns="http://www.w3.org/2000/svg" xmlns:xlink="http://www.w3.org/1999/xlink" x="0px" y="0px"
	 width="198.795px" height="201.205px" viewBox="0 0 198.795 201.205" enable-background="new 0 0 198.795 201.205"
	 xml:space="preserve">
<path d="M150.369,90.842l-21.613-21.613l-11.241-11.241l-9.735-9.735l-1.48-1.48c-1.656-1.658-3.862-2.572-6.207-2.572
	c-2.345,0-4.551,0.914-6.207,2.572L82.672,57.987H82.67l-2.865,2.865v0.002L66.649,74.008L54.546,86.111h-0.002l-5.103,5.103v1.636
	v64.836h101.307V92.85v-1.63L150.369,90.842z M55.931,90.454l40.821-40.815c1.785-1.785,4.899-1.785,6.684,0l42.741,42.743
	l-29.126,29.126l-9.27-9.272l-1.48-1.48c-1.656-1.658-3.862-2.572-6.207-2.572c-2.345,0-4.551,0.914-6.207,2.572l-10.91,10.908
	L53.849,92.536L55.931,90.454z M80.11,124.526l-0.301,0.305l-0.004-0.004l-26.312,26.31v-49.973v-1.856v-0.791V97.91L80.11,124.526z
	 M56.726,153.634l2.178-2.178h0.006l37.841-37.836c1.785-1.785,4.899-1.785,6.684,0l36.919,36.92h0.01l2.24,2.24l0.855,0.855H56.726
	z M146.695,99.308v51.831l-26.312-26.314l-0.008,0.006l-0.459-0.459l26.779-26.779v0.918V99.308z"/>
</svg>
