<?xml version="1.0" encoding="utf-8"?>
<!-- Generator: Adobe Illustrator 17.0.0, SVG Export Plug-In . SVG Version: 6.00 Build 0)  -->
<!DOCTYPE svg PUBLIC "-//W3C//DTD SVG 1.1//EN" "http://www.w3.org/Graphics/SVG/1.1/DTD/svg11.dtd">
<svg version="1.1" id="Layer_1" xmlns="http://www.w3.org/2000/svg" xmlns:xlink="http://www.w3.org/1999/xlink" x="0px" y="0px"
	 width="198.795px" height="201.205px" viewBox="0 0 198.795 201.205" enable-background="new 0 0 198.795 201.205"
	 xml:space="preserve">
<path fill="#FFFFFF" d="M158.924,172.862c-3.266,0-6.334-1.272-8.642-3.583l-28.93-28.928c-0.276-0.277-0.64-0.415-1.002-0.415
	s-0.726,0.138-1.002,0.415l-2.854,2.854l-1.853-1.853l10.574-10.575c0.266-0.266,0.415-0.626,0.415-1.002s-0.149-0.736-0.415-1.002
	l-19.294-19.285c-0.276-0.277-0.64-0.415-1.002-0.415s-0.726,0.138-1.002,0.415l-23.186,23.188
	c-0.387,0.387-0.517,0.963-0.332,1.479c3.567,9.984,1.119,20.854-6.391,28.366c-5.131,5.131-11.956,7.957-19.217,7.957
	c-3.742,0-7.376-0.749-10.802-2.227l-1.773-0.764l10.954-10.954c0.261-0.261,0.41-0.613,0.415-0.982l0.136-10.01
	c0.005-0.383-0.144-0.751-0.415-1.021c-0.266-0.267-0.627-0.415-1.002-0.415c-0.006,0-9.563,0.128-9.563,0.128
	c-0.369,0.005-0.722,0.153-0.983,0.415l-11.198,11.196l-0.766-1.769c-4.47-10.321-2.226-22.12,5.716-30.058
	c5.135-5.135,11.96-7.963,19.221-7.963c3.153,0,6.242,0.533,9.182,1.586c0.156,0.056,0.317,0.082,0.478,0.082
	c0.37,0,0.732-0.145,1.002-0.415l23.175-23.174c0.266-0.266,0.416-0.626,0.416-1.002s-0.149-0.736-0.416-1.002L55.775,59.342
	c-0.266-0.266-0.626-0.415-1.002-0.415s-0.736,0.15-1.002,0.416l-2.852,2.854L31.705,42.984l9.576-9.562l19.204,19.208l-2.857,2.855
	c-0.266,0.266-0.416,0.626-0.416,1.002s0.149,0.736,0.416,1.002l32.794,32.788c0.276,0.276,0.639,0.415,1.002,0.415
	s0.726-0.139,1.002-0.416l23.171-23.171c0.388-0.388,0.518-0.965,0.332-1.481c-3.59-9.998-1.146-20.879,6.378-28.397
	c5.13-5.135,11.955-7.962,19.219-7.962c3.758,0,7.405,0.754,10.843,2.241l1.771,0.766L142.94,43.469
	c-0.261,0.261-0.41,0.614-0.415,0.982l-0.134,9.547c-0.006,0.383,0.145,0.751,0.415,1.022c0.266,0.266,0.626,0.416,1.002,0.416
	c0.007,0,10.03-0.137,10.03-0.137c0.369-0.005,0.722-0.154,0.982-0.415l10.954-10.955l0.764,1.773
	c4.447,10.31,2.2,22.095-5.726,30.024c-5.137,5.133-11.965,7.959-19.226,7.959c-3.14,0-6.219-0.53-9.151-1.574
	c-0.155-0.056-0.316-0.083-0.476-0.083c-0.369,0-0.731,0.145-1.002,0.416l-23.18,23.185c-0.267,0.266-0.415,0.626-0.415,1.002
	s0.149,0.736,0.415,1.002l19.293,19.288c0.276,0.277,0.64,0.415,1.002,0.415s0.726-0.138,1.002-0.415l10.566-10.566l1.854,1.853
	l-2.858,2.858c-0.266,0.266-0.415,0.626-0.415,1.002s0.149,0.736,0.415,1.002l28.932,28.931c2.304,2.304,3.572,5.372,3.572,8.64
	c0,3.269-1.269,6.336-3.573,8.638C165.257,171.59,162.187,172.862,158.924,172.862z M135.783,124.508
	c-0.376,0-0.736,0.149-1.002,0.415l-11.571,11.571c-0.554,0.554-0.554,1.45,0,2.004l28.928,28.928
	c1.815,1.815,4.227,2.815,6.79,2.815s4.975-1,6.79-2.815c1.811-1.809,2.808-4.219,2.808-6.785c-0.001-2.565-0.998-4.976-2.81-6.786
	l-28.931-28.932C136.52,124.657,136.159,124.508,135.783,124.508z M48.567,164.848c-0.364,0.364-0.502,0.896-0.361,1.392
	c0.142,0.495,0.541,0.875,1.043,0.991c1.799,0.417,3.665,0.628,5.546,0.628c6.561,0,12.728-2.553,17.365-7.189
	c7.164-7.166,9.199-17.818,5.185-27.138l-0.352-0.815l54.003-54.014l0.816,0.353c3.102,1.335,6.391,2.013,9.775,2.013
	c6.561,0,12.73-2.554,17.373-7.191c6.049-6.055,8.502-14.624,6.562-22.922c-0.117-0.501-0.496-0.899-0.991-1.041
	c-0.128-0.037-0.259-0.055-0.389-0.055c-0.37,0-0.732,0.146-1.002,0.415l-7.626,7.625l-15.799,0.214l0.211-15.335l7.872-7.872
	c0.364-0.364,0.503-0.898,0.36-1.393c-0.142-0.495-0.541-0.875-1.043-0.99c-1.823-0.421-3.704-0.635-5.59-0.635
	c-6.562,0-12.729,2.555-17.366,7.194c-7.177,7.173-9.206,17.837-5.168,27.166l0.354,0.817l-53.994,53.994l-0.818-0.354
	c-3.106-1.345-6.403-2.026-9.8-2.026c-6.561,0-12.729,2.555-17.368,7.194c-6.067,6.062-8.519,14.647-6.557,22.964
	c0.118,0.5,0.498,0.897,0.992,1.038c0.127,0.036,0.258,0.054,0.387,0.054c0.371,0,0.733-0.146,1.002-0.415l7.876-7.877L56.4,141.43
	l-0.214,15.8L48.567,164.848z M41.279,37.714c-0.362,0-0.725,0.138-1.001,0.414l-3.86,3.852c-0.267,0.266-0.416,0.626-0.417,1.002
	c0,0.376,0.149,0.737,0.415,1.003l13.5,13.503c0.266,0.266,0.626,0.416,1.002,0.416l0,0c0.376,0,0.736-0.149,1.002-0.415
	l3.857-3.857c0.553-0.553,0.553-1.451,0-2.004L42.281,38.13C42.004,37.853,41.642,37.714,41.279,37.714z"/>
</svg>
