<?xml version="1.0" encoding="utf-8"?>
<!-- Generator: Adobe Illustrator 17.0.0, SVG Export Plug-In . SVG Version: 6.00 Build 0)  -->
<!DOCTYPE svg PUBLIC "-//W3C//DTD SVG 1.1//EN" "http://www.w3.org/Graphics/SVG/1.1/DTD/svg11.dtd">
<svg version="1.1" id="Layer_1" xmlns="http://www.w3.org/2000/svg" xmlns:xlink="http://www.w3.org/1999/xlink" x="0px" y="0px"
	 width="198.795px" height="201.205px" viewBox="0 0 198.795 201.205" enable-background="new 0 0 198.795 201.205"
	 xml:space="preserve">
<g>
	<path fill="#FFFFFF" d="M98.932,74.972c-14.138,0-25.605,11.46-25.605,25.605c0,14.138,11.466,25.604,25.605,25.604
		c14.141,0,25.598-11.466,25.598-25.604C124.531,86.433,113.074,74.972,98.932,74.972z M98.932,119.781
		c-10.588,0-19.204-8.616-19.204-19.204s8.616-19.204,19.204-19.204c10.585,0,19.198,8.616,19.198,19.204
		S109.517,119.781,98.932,119.781z"/>
	<path fill="#FFFFFF" d="M98.929,49.374c-28.28,0-51.203,22.92-51.203,51.203c0,28.28,22.923,51.203,51.203,51.203
		s51.203-22.923,51.203-51.203C150.132,72.294,127.209,49.374,98.929,49.374z M98.929,145.38c-24.705,0-44.803-20.098-44.803-44.803
		c0-24.705,20.098-44.803,44.803-44.803s44.803,20.098,44.803,44.803C143.732,125.282,123.634,145.38,98.929,145.38z"/>
	<path fill="#FFFFFF" d="M175.4,100.577c0-42.422-34.386-76.805-76.805-76.805S21.79,58.156,21.79,100.577
		c0,23.376,10.457,44.299,26.933,58.385l-13.101,16.423l5.006,3.994l13.129-16.461c12.619,9.091,28.095,14.464,44.837,14.464
		c16.667,0,32.08-5.325,44.668-14.345l13.054,16.342l5-3.994L148.31,159.1C164.877,145.011,175.4,124.029,175.4,100.577z
		 M28.19,100.577c0-38.821,31.583-70.404,70.404-70.404c38.821,0,70.404,31.583,70.404,70.404c0,38.821-31.583,70.404-70.404,70.404
		C59.774,170.982,28.19,139.398,28.19,100.577z"/>
</g>
</svg>
